<svg width="38" height="29" viewBox="0 0 38 29" fill="none" xmlns="http://www.w3.org/2000/svg">
<path d="M35.7183 0.999961C35.5593 0.983574 35.399 0.983574 35.24 0.999961H2.57332C2.36395 1.00319 2.15598 1.03458 1.95499 1.09329L18.8133 17.8816L35.7183 0.999961Z" fill="#FBFBFB"/>
<path d="M37.445 2.6217L20.4583 19.5384C20.0212 19.973 19.4298 20.2169 18.8133 20.2169C18.1969 20.2169 17.6055 19.973 17.1683 19.5384L0.333345 2.75004C0.281591 2.94025 0.25415 3.13626 0.251678 3.33337V26.6667C0.251678 27.2855 0.497511 27.879 0.935096 28.3166C1.37268 28.7542 1.96617 29 2.58501 29H35.2517C35.8705 29 36.464 28.7542 36.9016 28.3166C37.3392 27.879 37.585 27.2855 37.585 26.6667V3.33337C37.5757 3.0903 37.5285 2.85018 37.445 2.6217ZM4.18335 26.6667H2.56168V24.9984L11.0433 16.5867L12.6883 18.2317L4.18335 26.6667ZM35.2283 26.6667H33.595L25.09 18.2317L26.735 16.5867L35.2167 24.9984L35.2283 26.6667Z" fill="#FBFBFB"/>
</svg>
