<svg width="34" height="36" viewBox="0 0 34 36" fill="none" xmlns="http://www.w3.org/2000/svg">
<path d="M9.292 1.04255C10.6062 1.48773 11.8564 2.10313 13.0108 2.87305C14.641 2.45639 16.3173 2.24707 18 2.25005C19.7378 2.25005 21.4143 2.46705 22.9858 2.8713C24.1396 2.10213 25.3893 1.48732 26.7028 1.04255C27.9225 0.627797 29.6603 -0.0442027 30.6928 1.09855C31.3928 1.87555 31.5678 3.17755 31.692 4.17155C31.832 5.28105 31.8653 6.72655 31.4978 8.16155C32.903 9.9763 33.75 12.141 33.75 14.5C33.75 18.0735 31.8145 21.1763 28.9498 23.3253C27.5711 24.3465 26.042 25.147 24.4173 25.6983C24.7918 26.5558 25 27.5043 25 28.5V33.75C25 34.2142 24.8156 34.6593 24.4874 34.9875C24.1593 35.3157 23.7141 35.5 23.25 35.5H12.75C12.2859 35.5 11.8408 35.3157 11.5126 34.9875C11.1844 34.6593 11 34.2142 11 33.75V32.0158C9.32875 32.2205 7.927 32.0385 6.73526 31.5328C5.48925 31.0043 4.62125 30.1853 3.9685 29.4013C3.349 28.6593 2.6735 26.9863 1.697 26.6608C1.47891 26.5882 1.27726 26.4733 1.10356 26.3228C0.929857 26.1722 0.787511 25.9889 0.684647 25.7833C0.476904 25.3682 0.44259 24.8875 0.589255 24.447C0.735919 24.0066 1.05155 23.6424 1.46671 23.4347C1.88187 23.2269 2.36255 23.1926 2.803 23.3393C3.9685 23.7278 4.728 24.5678 5.24775 25.2433C6.08775 26.3283 6.77025 27.7458 8.10025 28.311C8.648 28.5438 9.45125 28.696 10.7078 28.5245L11 28.465C11.0033 27.5127 11.2017 26.5711 11.5828 25.6983C9.95803 25.1471 8.42892 24.3465 7.05025 23.3253C4.1855 21.1763 2.25 18.0753 2.25 14.5C2.25 12.1445 3.09525 9.98155 4.497 8.16855C4.1295 6.73355 4.161 5.28455 4.301 4.1733L4.30975 4.1068C4.4375 3.0883 4.58625 1.88955 5.30025 1.09855C6.33275 -0.0442027 8.07225 0.629547 9.29025 1.0443L9.292 1.04255Z" fill="#FBFBFB"/>
</svg>
