<svg width="36" height="36" viewBox="0 0 36 36" fill="none" xmlns="http://www.w3.org/2000/svg">
<path fill-rule="evenodd" clip-rule="evenodd" d="M13.5007 12.6958H20.0002V15.9333C20.9365 14.0713 23.3375 12.3983 26.9443 12.3983C33.8585 12.3983 35.5 16.1048 35.5 22.9053V35.5H28.5V24.454C28.5 20.5812 27.5638 18.3973 25.1803 18.3973C21.8745 18.3973 20.5007 20.751 20.5007 24.4523V35.5H13.5007V12.6958V12.6958ZM1.4975 35.2025H8.4975V12.3983H1.4975V35.2025V35.2025ZM9.50025 4.9625C9.50051 5.54923 9.38415 6.13016 9.15793 6.67153C8.93171 7.21289 8.60014 7.7039 8.1825 8.116C7.3362 8.95709 6.19067 9.42789 4.9975 9.425C3.80643 9.4242 2.66354 8.9546 1.816 8.11775C1.39987 7.70425 1.06943 7.21269 0.843601 6.67126C0.617778 6.12982 0.501013 5.54914 0.5 4.9625C0.5 3.77775 0.9725 2.64375 1.81775 1.80725C2.66455 0.969277 3.80792 0.499476 4.99925 0.5C6.19275 0.5 7.33725 0.97075 8.1825 1.80725C9.026 2.64375 9.50025 3.77775 9.50025 4.9625Z" fill="#FBFBFB"/>
</svg>
